<svg xmlns="http://www.w3.org/2000/svg" viewBox="0 0 900
  900"><defs><style>.cls-bottom-1{fill:#414042;stroke-width:4px;opacity:0.8;}.cls-bottom-1,.cls-bottom-2,.cls-bottom-3,.cls-bottom-4{stroke:#231f20;stroke-miterlimit:10;}.cls-bottom-2,.cls-bottom-3,.cls-bottom-4{fill:none;}.cls-bottom-2{stroke-width:2px;}.cls-bottom-3{stroke-width:1.5px;}.cls-bottom-5{fill:#f0574a;}</style></defs>
<g id="recreated"><circle class="cls-bottom-1" cx="448.73" cy="451.6"
r="434.63"/><circle class="cls-bottom-2" cx="448.73" cy="451.6" r="417.14"/><circle
class="cls-bottom-2" cx="448.73" cy="451.6" r="401.72"/><circle class="cls-bottom-2"
cx="448.73" cy="451.6" r="384"/><circle class="cls-bottom-2" cx="448.73" cy="451.6"
r="365.87"/><circle class="cls-bottom-2" cx="448.73" cy="451.6" r="350.67"/><circle
class="cls-bottom-2" cx="448.73" cy="451.6" r="331.17"/><circle class="cls-bottom-2"
cx="448.73" cy="451.6" r="313.13"/><circle class="cls-bottom-3" cx="448.73" cy="451.6"
r="295.85"/><circle class="cls-bottom-3" cx="448.73" cy="451.6" r="281.06"/><circle
class="cls-bottom-3" cx="448.73" cy="451.6" r="265.72"/><circle class="cls-bottom-3"
cx="448.73" cy="451.6" r="253.79"/><circle class="cls-bottom-3" cx="448.73" cy="451.6"
r="239.75"/><circle class="cls-bottom-3" cx="448.73" cy="451.6" r="228.41"/><circle
class="cls-bottom-4" cx="448.73" cy="451.6" r="216.23"/><circle class="cls-bottom-4"
cx="448.73" cy="451.6" r="203.76"/><circle class="cls-bottom-4" cx="448.73" cy="451.6"
r="194.16"/><circle class="cls-bottom-4" cx="448.73" cy="451.6" r="183.88"/><circle
class="cls-bottom-4" cx="448.73" cy="451.6" r="174.04"/><circle class="cls-bottom-4"
cx="450.73" cy="451.6" r="156.71"/><circle class="cls-bottom-5" cx="448.73" cy="451.6"
r="160.58"/></g></svg>
